PathFileType	4	(X/Y/Z)	s06c0302.trc
DataRate	CameraRate	NumFrames	NumMarkers	Units	OrigDataRate	OrigDataStartFrame	OrigNumFrames
200	200	6	48	mm	200	1500	2000
Frame#	Time	racr			lacr			c7			jug			rlel			rdr			llel			ldr			s2			lic			ric			lasi			rasi			rpsi			lpsi			rgt			lgt			rth1			rth2			rth3			rth4			rlfc			rmfc			rsh1			rsh2			rsh3			rsh4			rlmal			rcal			rtoe			rmt5			lth1			lth2			lth4			lth3			llfc			lmfc			llmal			lcal			lmt5			lsh1			lsh2			lsh3			lsh4			ltoe			SBIKE			LBIKE			RBIKE			
		X1	Y1	Z1	X2	Y2	Z2	X3	Y3	Z3	X4	Y4	Z4	X5	Y5	Z5	X6	Y6	Z6	X7	Y7	Z7	X8	Y8	Z8	X9	Y9	Z9	X10	Y10	Z10	X11	Y11	Z11	X12	Y12	Z12	X13	Y13	Z13	X14	Y14	Z14	X15	Y15	Z15	X16	Y16	Z16	X17	Y17	Z17	X18	Y18	Z18	X19	Y19	Z19	X20	Y20	Z20	X21	Y21	Z21	X22	Y22	Z22	X23	Y23	Z23	X24	Y24	Z24	X25	Y25	Z25	X26	Y26	Z26	X27	Y27	Z27	X28	Y28	Z28	X29	Y29	Z29	X30	Y30	Z30	X31	Y31	Z31	X32	Y32	Z32	X33	Y33	Z33	X34	Y34	Z34	X35	Y35	Z35	X36	Y36	Z36	X37	Y37	Z37	X38	Y38	Z38	X39	Y39	Z39	X40	Y40	Z40	X41	Y41	Z41	X42	Y42	Z42	X43	Y43	Z43	X44	Y44	Z44	X45	Y45	Z45	X46	Y46	Z46	X47	Y47	Z47	X48	Y48	Z48	
1500	7.5000	743.584504	1185.957395	-57.231862	783.865078	1180.821675	-356.918374	801.096951	1245.722547	-206.231309	721.499423	1096.965024	-213.237252	565.745692	1040.999031	72.198310	717.808239	923.973868	-41.985504	598.238164	1074.777635	-526.899975	720.108554	923.715119	-422.600856	227.701367	1256.998823	-283.857151	381.065851	1147.697612	-409.607987	319.815979	1165.875972	-89.006232	370.595294	1091.588917	-371.271232	337.314490	1110.695878	-118.523192	258.004469	1267.185436	-237.550995	268.249413	1264.486491	-297.232251	270.405740	1109.550228	-61.209769	337.932599	1093.745392	-443.518527	326.214546	990.844451	-36.825600	381.942456	919.782060	-31.341793	395.439814	833.316756	-35.813299	415.034032	934.653935	-44.329043	419.963337	727.559000	-45.671381	421.528002	702.848839	-153.460873	376.030504	611.662767	-24.693245	372.154085	526.111409	-44.183932	328.025707	452.042747	-51.457305	399.072024	522.681104	-73.667827	294.956235	379.362430	-57.745780	230.929718	366.192018	-108.278216	487.875071	263.893076	-95.306433	387.391942	277.556774	-29.544850	359.063588	974.218983	-450.736350	409.892498	905.726000	-433.049110	438.773151	919.537872	-414.340484	421.677077	817.222947	-428.377561	412.222821	702.726429	-397.949033	399.058513	691.639953	-285.643989	109.354305	491.116517	-381.011014	57.669403	539.385845	-336.369548	93.779148	341.977402	-399.385003	331.376360	630.657507	-419.932593	274.895412	569.153474	-395.994805	191.752002	536.936944	-395.286802	291.173728	553.753535	-363.548430	131.811558	266.060886	-337.387142	-202.795529	866.309519	-211.417659	-50.408602	80.505749	-411.224341	-50.194482	80.298781	-14.244486	
1501	7.5050	743.308554	1185.852973	-58.672557	782.283303	1180.852703	-358.268083	800.267933	1246.122692	-207.679064	721.118794	1097.090693	-214.320195	566.383322	1040.502576	72.234673	718.797667	923.119950	-41.689994	596.662378	1073.630534	-527.247505	719.906543	923.494576	-422.441625	225.706720	1255.283706	-280.725640	379.010309	1148.114845	-409.153635	319.228497	1162.105532	-88.664589	368.746578	1091.456993	-370.837160	335.622869	1106.970419	-118.905560	256.318370	1265.393444	-234.631996	266.065086	1263.506887	-294.180641	268.510577	1105.511866	-60.507145	336.803195	1095.519827	-442.523509	322.098394	985.752527	-36.491183	376.417433	913.432345	-32.045985	387.761563	826.549606	-37.254719	409.439371	927.325776	-44.834750	411.450316	721.909990	-47.222817	412.060511	697.267867	-155.414757	368.690763	604.853869	-25.159768	366.240016	519.153534	-44.158984	323.418506	444.325919	-51.101404	393.401396	515.859899	-73.360505	292.194381	369.931063	-56.977209	228.691315	357.143906	-107.744526	484.741040	252.643112	-95.114506	384.373269	266.989489	-29.391672	361.194639	977.015473	-451.366250	413.668171	910.147807	-433.025859	441.716425	924.709810	-413.646379	428.124187	821.935977	-428.692867	420.084410	707.517049	-398.879042	406.772759	696.599900	-286.452911	113.602555	501.303598	-381.073008	61.860139	549.579911	-336.330160	97.373757	352.095600	-399.190232	338.657173	635.935141	-420.502332	281.076124	575.601127	-395.992798	197.523075	544.682782	-395.305833	297.057134	560.384790	-363.324222	135.300093	276.020279	-337.347122	-202.667223	866.265628	-211.208919	-50.311161	80.517866	-411.179363	-50.091364	80.147161	-14.218408	
1502	7.5100	742.894705	1186.349165	-60.110458	780.576137	1181.062568	-359.689129	799.149104	1246.691662	-209.198345	720.452260	1097.366333	-215.037455	567.246456	1040.341924	72.509063	719.293427	922.551320	-41.662669	595.001708	1072.317639	-527.657145	719.781507	923.378016	-422.128973	223.577715	1253.382779	-277.643827	376.813233	1148.518263	-408.689505	318.571876	1158.993603	-88.065506	366.977711	1091.507590	-370.520343	334.470482	1104.013208	-118.863429	254.703099	1263.424637	-231.706581	263.925375	1262.401546	-291.356719	266.494007	1101.622317	-59.791512	335.548997	1097.290848	-441.563968	317.915787	980.885470	-36.310890	370.212613	907.244690	-32.378276	379.993011	820.026095	-38.141278	403.806935	920.547956	-45.168540	402.208475	716.187488	-48.703139	402.138205	691.286222	-157.234794	361.377145	597.934955	-25.635185	360.228815	512.168483	-44.153403	318.487611	436.702319	-50.892397	387.462778	509.058489	-73.302460	289.776123	359.991090	-57.826716	226.160377	348.713800	-107.507404	481.050600	241.174350	-95.036428	380.891995	256.709942	-29.338483	362.888503	979.960288	-451.606437	417.130768	914.717135	-432.960822	444.474869	929.950006	-413.153714	434.086429	826.828795	-429.100035	428.007939	712.678003	-399.829761	414.344640	701.485498	-287.238654	118.079058	511.245370	-380.953411	66.569994	559.630977	-336.176719	101.627341	362.017138	-399.043799	346.158762	641.143100	-420.919824	287.373099	581.939154	-395.799911	203.468640	552.432195	-395.082224	303.050822	566.775115	-362.540116	139.409857	286.037942	-337.485393	-202.553748	866.265866	-210.916442	-50.256550	80.557414	-411.110075	-50.019579	80.060691	-14.180119	
1503	7.5150	742.379127	1187.072305	-61.594368	778.693501	1181.446300	-361.249947	797.667916	1247.501445	-210.756646	719.232434	1098.036804	-216.263662	568.261819	1040.549871	72.933808	719.671549	922.299321	-42.085866	593.210387	1071.100178	-528.152821	716.900380	922.913717	-419.491495	221.337239	1251.329326	-274.675705	374.337579	1148.905923	-408.166558	317.912349	1155.964418	-87.564022	365.226214	1091.703240	-370.355658	333.302187	1101.161632	-118.948409	252.870402	1261.658978	-228.922510	261.837804	1261.535820	-289.335268	264.639827	1097.923830	-59.181477	334.005180	1099.118780	-440.637792	313.678152	976.204478	-36.289189	364.089867	901.192736	-32.876002	372.605185	814.084933	-38.530078	398.056137	913.814104	-45.565952	392.373182	710.169310	-50.089794	392.275259	684.984093	-158.497391	353.889558	591.000137	-26.012370	354.147072	505.129177	-44.329831	313.435905	429.018449	-50.743010	381.149965	502.319880	-73.759298	286.723461	351.166374	-57.722910	223.114575	340.667299	-107.434793	476.764755	229.951887	-94.909789	376.776803	246.827245	-29.297282	364.184832	983.060990	-451.301982	420.352434	919.305179	-432.963677	447.196431	935.145639	-413.289741	439.802681	831.937481	-429.281237	435.804931	718.076934	-400.618737	422.111492	706.911723	-288.576860	123.156284	520.693635	-380.855466	71.438559	569.401267	-335.881000	106.401454	371.798964	-398.960415	353.666466	646.414866	-421.143510	293.956320	588.365778	-395.519946	209.630671	560.204402	-394.610701	309.321783	573.541355	-362.079111	144.138603	295.660128	-337.294586	-202.509423	866.333269	-210.609481	-50.245034	80.614047	-411.047260	-49.970842	80.080991	-14.107800	
1504	7.5200	741.738425	1188.180359	-63.099544	776.707617	1181.902959	-362.817626	795.829168	1248.607938	-212.247308	718.092974	1098.555728	-217.543499	569.414086	1040.963285	73.552201	719.558825	922.026632	-41.964710	591.106265	1069.727040	-528.544654	716.485479	922.934212	-418.954467	219.008160	1249.156993	-271.885272	371.822414	1149.237513	-407.695379	317.274933	1153.170685	-85.641086	363.431962	1092.040459	-370.182141	333.826660	1098.964169	-117.484325	251.066520	1259.646272	-226.207931	259.522109	1260.485836	-287.127752	263.204187	1094.108401	-59.229266	332.132092	1101.017719	-439.751257	309.518423	971.472664	-36.444943	358.212616	895.196092	-33.252878	364.130489	807.981100	-39.470294	392.195491	907.062111	-45.856943	382.189888	703.685861	-51.105697	382.538731	677.819856	-159.112613	346.680368	583.806349	-26.634593	347.902099	497.829561	-44.553545	308.223640	421.237596	-50.826745	374.517160	495.784245	-75.280607	283.160165	342.853691	-57.612218	219.779782	333.286811	-107.189079	471.865754	218.937584	-94.826545	372.040464	237.175792	-29.241353	365.097623	986.267215	-450.627326	423.322724	924.086906	-433.132316	450.110255	940.520863	-412.914896	445.099074	837.171067	-429.388432	443.566672	723.786664	-401.478838	435.524295	713.295852	-286.414119	128.780548	530.042194	-380.964367	76.587302	578.813499	-335.659658	111.918502	381.394896	-398.809399	361.104946	651.976322	-420.928721	300.627823	595.068680	-395.182925	215.956499	567.935607	-394.173597	315.701873	580.448963	-361.461490	149.535535	305.342971	-337.344209	-202.543557	866.393000	-210.336483	-50.272083	80.719061	-410.981181	-49.954489	80.036479	-14.091578	
1505	7.5250	741.018559	1189.528762	-64.545760	774.433307	1182.530650	-364.133131	793.658007	1249.839327	-213.987504	716.849020	1099.641469	-218.926539	570.718327	1041.825895	74.323813	719.336279	922.402760	-41.842184	588.912435	1068.028322	-528.399840	716.110962	922.853555	-418.628331	216.613377	1246.898943	-269.336490	369.075431	1149.567881	-407.188430	318.988372	1151.559279	-83.327877	361.644340	1092.758019	-369.856166	337.078466	1097.990364	-115.431581	249.166479	1257.746956	-223.925296	257.252238	1259.493411	-285.284716	261.901620	1090.219154	-59.273699	330.035339	1102.907415	-438.741682	305.135087	966.892085	-36.021445	352.050821	889.116488	-34.031876	354.224559	801.904319	-41.097240	386.310238	900.174887	-45.984217	372.199056	696.895815	-51.770325	371.628695	670.935298	-159.995496	339.284012	576.595938	-27.342685	341.684004	490.733657	-44.926145	303.095781	413.372350	-50.938528	367.497900	488.725352	-76.637827	279.091275	335.021081	-57.525369	215.894036	326.520929	-107.043796	466.293175	208.194022	-94.777350	366.847850	228.056405	-29.181781	365.698493	989.625161	-449.810302	426.101878	929.141364	-433.974254	452.687855	946.208522	-413.874274	450.100676	842.625923	-429.595660	450.941708	729.715378	-402.280073	444.090269	718.985515	-286.979717	134.666467	539.228398	-380.977785	81.720352	588.080892	-335.396631	117.738477	390.858055	-398.774084	368.387443	658.202726	-420.914414	307.334988	601.871787	-394.823348	222.278313	575.687086	-393.568123	322.111069	587.396021	-360.931497	155.747184	314.874913	-337.425983	-202.639205	866.459600	-210.209870	-50.298555	80.807285	-410.961257	-50.026144	80.091045	-14.051141	
